<?xml version="1.0" encoding="UTF-8"?> <svg xmlns="http://www.w3.org/2000/svg" viewBox="0 0 33.23 33.18"><defs><style>.cls-1{fill:#fff;}</style></defs><g id="レイヤー_2" data-name="レイヤー 2"><g id="レイヤー_1-2" data-name="レイヤー 1"><path class="cls-1" d="M16.62,33.18A16.69,16.69,0,0,1,2.24,24.9c-.28-.49-.54-1-.76-1.48L13,11.91v9.76a.47.47,0,0,0,.14.33.46.46,0,0,0,.63,0L24.32,11.46a.47.47,0,0,0,.1-.5.46.46,0,0,0-.42-.28H19.21V9.53h7.85v7.84H25.91V12.59a.46.46,0,0,0-.46-.46.45.45,0,0,0-.32.14L11.85,25.53V15.78a.46.46,0,0,0-.45-.46.43.43,0,0,0-.32.14l-8,8a.53.53,0,0,0-.09.62,15.63,15.63,0,0,0,13.66,8.07A15.6,15.6,0,0,0,32.19,15.85,15.68,15.68,0,0,0,17.36,1l-.74,0A15.56,15.56,0,0,0,1.38,19.91l-.85.85A16.6,16.6,0,0,1,16.62,0l.79,0A16.71,16.71,0,0,1,33.21,15.8,16.61,16.61,0,0,1,16.62,33.18Z"></path></g></g></svg> 