<?xml version="1.0" encoding="UTF-8"?> <svg xmlns="http://www.w3.org/2000/svg" viewBox="0 0 33.32 33.18"><defs><style>.cls-1{fill:#fff;}</style></defs><g id="レイヤー_2" data-name="レイヤー 2"><g id="レイヤー_1-2" data-name="レイヤー 1"><path class="cls-1" d="M16.66,33.18A16.57,16.57,0,0,1,1.77,24l1-.37a15.65,15.65,0,0,0,24.82,4.1l.55.89A16.61,16.61,0,0,1,16.66,33.18Zm9.13-13.11.58-1L29.44,24a.56.56,0,0,0,1,0,15.61,15.61,0,0,0,1.89-7.41,15.44,15.44,0,0,0-2-7.6.56.56,0,0,0-.48-.28.57.57,0,0,0-.49.27l-6.21,10.6a1.88,1.88,0,0,1-.51.54L19.1,22.55a.55.55,0,0,1-.32.1.6.6,0,0,1-.42-.18.55.55,0,0,1-.14-.43l.4-4.23a1.91,1.91,0,0,1,.23-.71L26.08,4.79a.56.56,0,0,0-.15-.73A15.64,15.64,0,0,0,1,16.59a15.16,15.16,0,0,0,.31,3.07.55.55,0,0,0,.55.44.69.69,0,0,0,.2,0L17.72,14l-.84,1.42L.8,21.66A16.35,16.35,0,0,1,0,15.48,16.69,16.69,0,0,1,16,0h.68a16.56,16.56,0,0,1,9.88,3.24c.39.29.76.59,1.11.89L19.82,17.48a1.33,1.33,0,0,0-.19.57L19.45,20a.56.56,0,0,0,.56.61.63.63,0,0,0,.32-.1l1.57-1.09a1.57,1.57,0,0,0,.41-.44L29.72,6.3c.28.35.54.71.79,1.07a16.51,16.51,0,0,1-.63,19.3Z"></path></g></g></svg> 