<?xml version="1.0" encoding="UTF-8"?> <svg xmlns="http://www.w3.org/2000/svg" viewBox="0 0 33.19 33.18"><defs><style>.cls-1{fill:#fff;}</style></defs><g id="レイヤー_2" data-name="レイヤー 2"><g id="レイヤー_1-2" data-name="レイヤー 1"><path class="cls-1" d="M16.6,33.18a16.63,16.63,0,0,1-5.38-.89V31.2a15.41,15.41,0,0,0,5.38,1l1,0A15.57,15.57,0,0,0,16.6,1H16a15.56,15.56,0,0,0-9,27.86.47.47,0,0,0,.28.09.45.45,0,0,0,.45-.45V6.8h1V8a.62.62,0,0,0,.32.55,11.7,11.7,0,0,0,5.39,1.25,12.7,12.7,0,0,0,3.29-.43c1.11-.3,2.06-.59,2.9-.85a18.23,18.23,0,0,1,5.45-1.09h.51V20.17h-.51a17,17,0,0,0-5.15,1c-.85.26-1.81.55-2.93.85a13.45,13.45,0,0,1-3.56.48,13.15,13.15,0,0,1-3.3-.42V21.07a12.21,12.21,0,0,0,3.3.44,12.65,12.65,0,0,0,3.29-.43c1.11-.3,2.06-.59,2.9-.84a22.66,22.66,0,0,1,4.53-1.06.45.45,0,0,0,.41-.45V9a.45.45,0,0,0-.45-.45h0a21.47,21.47,0,0,0-4.15,1c-.84.26-1.8.55-2.93.85a13.5,13.5,0,0,1-3.56.47,13.35,13.35,0,0,1-5.08-1,.39.39,0,0,0-.18,0,.46.46,0,0,0-.45.46v21c-.4-.22-.79-.45-1.18-.7A16.58,16.58,0,0,1,16,0h.58A16.67,16.67,0,0,1,28.68,5.23a16.46,16.46,0,0,1,4.48,12.41A16.65,16.65,0,0,1,18,33.12c-.48,0-1,.06-1.44.06Z"></path></g></g></svg> 