<svg xmlns="http://www.w3.org/2000/svg" width="20" height="18" viewBox="0 0 20 18">
  <path id="icon_cart" d="M151.99,9467.653h-2.845a.691.691,0,0,0-.669.511l-.463,1.725H133.375a.692.692,0,0,0-.69.752l.714,8.073a.692.692,0,0,0,.636.629l13.1,1.023v.714H135.492a.691.691,0,0,0-.007,1.383v.551a1.4,1.4,0,0,0-.746,1.23v.019a1.4,1.4,0,0,0,1.394,1.391h.019a1.4,1.4,0,0,0,1.394-1.391v-.019a1.4,1.4,0,0,0-.745-1.23v-.551h9.721v.551a1.4,1.4,0,0,0-.746,1.23v.019a1.4,1.4,0,0,0,1.394,1.391h.019a1.4,1.4,0,0,0,1.394-1.391v-.019a1.4,1.4,0,0,0-.746-1.23v-.551a.693.693,0,0,0,.686-.691v-2.017l.707-9.059.446-1.662h2.314a.69.69,0,1,0,0-1.381Z" transform="translate(-132.683 -9467.653)" fill="#FFF"/>
</svg>
