<?xml version="1.0" encoding="UTF-8"?> <svg xmlns="http://www.w3.org/2000/svg" viewBox="0 0 33.19 33.18"><defs><style>.cls-1{fill:#fff;}</style></defs><g id="レイヤー_2" data-name="レイヤー 2"><g id="レイヤー_1-2" data-name="レイヤー 1"><path class="cls-1" d="M16.51,33.18V8.25a.46.46,0,0,0-.45-.46H12.52a.47.47,0,0,0-.46.46v24.3q-.51-.15-1-.33V17.6a.45.45,0,0,0-.45-.45H7.05a.46.46,0,0,0-.46.45V29.82c-.39-.3-.78-.62-1.13-.94A16.58,16.58,0,0,1,16.3,0h.3a16.58,16.58,0,0,1,12,28.06,14,14,0,0,1-1.12,1.06v-8a.45.45,0,0,0-.45-.45H23.46a.46.46,0,0,0-.46.45V31.89a10.65,10.65,0,0,1-1,.39V13.38a.45.45,0,0,0-.45-.45H18a.45.45,0,0,0-.45.45V33.15l-.93,0ZM16.6,1l-.76,0A15.56,15.56,0,0,0,4.77,26.71a.46.46,0,0,0,.35.16.46.46,0,0,0,.45-.46V16.12h5a.45.45,0,0,0,.45-.45V6.77h6.49v4.69a.46.46,0,0,0,.45.45h5v7.3a.47.47,0,0,0,.46.46h5v5.66a.46.46,0,0,0,.82.27,15.41,15.41,0,0,0,2.88-9A15.59,15.59,0,0,0,16.6,1Z"></path></g></g></svg> 