<svg xmlns="http://www.w3.org/2000/svg" width="16" height="16" viewBox="0 0 16 16">
  <path id="check" d="M16.563-9.715A3.758,3.758,0,0,1,15.5-7.225l-.111.12L9.171.005A40.185,40.185,0,0,1,5.8,3.5Q4.4,4.734,3.831,4.734a2.848,2.848,0,0,1-1.5-.617A3.012,3.012,0,0,1,1.176,2.845,10.739,10.739,0,0,1,.759.53,34.907,34.907,0,0,1,.563-3.3a3.043,3.043,0,0,1,.865-2.081A2.547,2.547,0,0,1,3.338-6.34q1,0,1.187,1.977.02.229.03.339a10.661,10.661,0,0,0,.372,2.119q.211.6.573.6.151,0,.563-.355a13.355,13.355,0,0,0,.986-.967L13.435-9.5a9.552,9.552,0,0,1,1.438-1.322,2,2,0,0,1,1.076-.448.49.49,0,0,1,.473.273,2.153,2.153,0,0,1,.141.917Z" transform="translate(-0.563 11.266)" fill="#fff"/>
</svg>