<?xml version="1.0" encoding="UTF-8"?> <svg xmlns="http://www.w3.org/2000/svg" viewBox="0 0 33.34 33.18"><defs><style>.cls-1{fill:#fff;}</style></defs><g id="レイヤー_2" data-name="レイヤー 2"><g id="レイヤー_1-2" data-name="レイヤー 1"><path class="cls-1" d="M16.67,17.7a1.23,1.23,0,1,1,1.23-1.23A1.23,1.23,0,0,1,16.67,17.7Zm5.72,0a1.23,1.23,0,1,1,1.23-1.23A1.24,1.24,0,0,1,22.39,17.7Zm-11.45,0a1.23,1.23,0,1,1,1.23-1.23A1.23,1.23,0,0,1,10.94,17.7Zm5.73,15.48c-.41,0-.85,0-1.33-.06s-1.07-.11-1.59-.2c.44-.31.86-.63,1.25-1a14,14,0,0,0,3.55-4.34,8.87,8.87,0,0,0,1.05-3.68v-.5h6.16a1.7,1.7,0,0,0,1.7-1.69V11.2a1.7,1.7,0,0,0-1.7-1.69H7.57a1.7,1.7,0,0,0-1.7,1.69V21.75a1.7,1.7,0,0,0,1.7,1.69h7.14l0,.48c0,.44.2,4.4-2.23,7.16a7.54,7.54,0,0,1-1.26,1.13.14.14,0,0,1-.09,0h-.05a18.76,18.76,0,0,1-1.77-.74A16.59,16.59,0,0,1,15.84,0l.83,0a16.59,16.59,0,1,1,0,33.18Zm4.23-8.72a.34.34,0,0,0-.34.3,12.2,12.2,0,0,1-3.44,6.61.45.45,0,0,0-.09.49.46.46,0,0,0,.42.28A15.57,15.57,0,0,0,16.67,1L15.9,1a15.55,15.55,0,0,0-5.3,29.9.86.86,0,0,0,.27,0,.71.71,0,0,0,.48-.19,7.06,7.06,0,0,0,1.75-2.71,10.52,10.52,0,0,0,.63-3.27.4.4,0,0,0-.1-.26.39.39,0,0,0-.25-.1H7.57a2.72,2.72,0,0,1-2.72-2.71V11.2A2.71,2.71,0,0,1,7.57,8.49H25.76a2.72,2.72,0,0,1,2.73,2.71V21.75a2.72,2.72,0,0,1-2.73,2.71Z"></path></g></g></svg> 