<?xml version="1.0" encoding="UTF-8"?> <svg xmlns="http://www.w3.org/2000/svg" viewBox="0 0 33.22 33.18"><defs><style>.cls-1{fill:#fff;}</style></defs><g id="レイヤー_2" data-name="レイヤー 2"><g id="レイヤー_1-2" data-name="レイヤー 1"><path class="cls-1" d="M14.31,33.18c-.38,0-.77-.12-1.14-.2a16.7,16.7,0,0,1-9.11-5.4,6,6,0,0,0,1.18.12H5.5a.14.14,0,0,1,.11,0,15.61,15.61,0,0,0,7.28,4.12H13a.45.45,0,0,0,.45-.46V19.19c0-4.85,2.21-7.35,6.74-7.64a.34.34,0,0,0,.25-.13.38.38,0,0,0,.08-.27,5.47,5.47,0,0,0-5.35-4.64,3.91,3.91,0,0,0-.49,0,5.51,5.51,0,0,0-4.93,5.52v8.81s0,.05,0,.08A4.34,4.34,0,0,1,6,25.37a4.23,4.23,0,0,1-.79.08C3.1,25.45,1.59,23.67.9,22c0,0,0-.05,0-.08a.93.93,0,0,1,0-.13,7.64,7.64,0,0,1-.35-1.16v-.08A16.64,16.64,0,0,1,16.61,0h.27a16.68,16.68,0,0,1,12,27.94c-.3.33-.62.65-.95,1V22.24a.45.45,0,0,0-.45-.45H15.93v-.87h4.29a.45.45,0,0,0,.44-.45V14h.86v6.46a.45.45,0,0,0,.45.45h5.45a.46.46,0,0,0,.46-.45V19.19c0-4.65-2.16-6.81-6.8-6.81s-6.77,2.23-6.77,6.81Zm.86-27.69a6.43,6.43,0,0,1,6.39,5.74.35.35,0,0,0,.33.31c4.61.26,6.85,2.77,6.85,7.65V25.1a.45.45,0,0,0,.45.45.43.43,0,0,0,.37-.2A15.64,15.64,0,0,0,16.83,1h-.22A15.62,15.62,0,0,0,1.74,21.34c.27.74,1.32,3.08,3.5,3.08a3.05,3.05,0,0,0,.6-.06c1.92-.38,2.89-1.68,2.89-3.88V12.09a6.71,6.71,0,0,1,6-6.59Z"></path></g></g></svg> 